<?xml version="1.0" standalone="no"?><svg xmlns="http://www.w3.org/2000/svg" viewBox="0 0 1440 320"><path fill="#5000ca" fill-opacity="1" d="M0,160L30,133.3C60,107,120,53,180,58.7C240,64,300,128,360,181.3C420,235,480,277,540,272C600,267,660,213,720,197.3C780,181,840,203,900,192C960,181,1020,139,1080,149.3C1140,160,1200,224,1260,234.7C1320,245,1380,203,1410,181.3L1440,160L1440,320L1410,320C1380,320,1320,320,1260,320C1200,320,1140,320,1080,320C1020,320,960,320,900,320C840,320,780,320,720,320C660,320,600,320,540,320C480,320,420,320,360,320C300,320,240,320,180,320C120,320,60,320,30,320L0,320Z"></path></svg>